<svg id="Capa_1" enable-background="new 0 0 512 512" height="512" viewBox="0 0 512 512" width="512" xmlns="http://www.w3.org/2000/svg"><g><path d="m286 0h-60c-52.467 0-95 42.533-95 95v35c0 8.284 6.716 15 15 15h220c8.284 0 15-6.716 15-15v-35c0-52.467-42.533-95-95-95z" fill="#0052be"/><g><g><path d="m286 0h-30v145h110c8.284 0 15-6.716 15-15v-35c0-52.467-42.533-95-95-95z" fill="#00337a"/></g></g><path d="m456 512h-400c-8.284 0-15-6.716-15-15v-22c0-63.411 51.589-115 115-115h25l75 20 75-20h25c63.411 0 115 51.589 115 115v22c0 8.284-6.716 15-15 15z" fill="#0052be"/><g><path d="m356 360h-25l-75 20v132h200c8.284 0 15-6.716 15-15v-22c0-63.411-51.589-115-115-115z" fill="#00337a"/><path d="m301 360v-47.501h-90v47.501h-30v15c0 41.421 33.579 75 75 75 41.421 0 75-33.579 75-75v-15z" fill="#fdd1a3"/><path d="m331 360h-30v-47.501h-45v137.501c41.421 0 75-33.579 75-75z" fill="#ffbb85"/></g><path d="m391 230h-40v-80h40c22.091 0 40 17.909 40 40 0 22.091-17.909 40-40 40z" fill="#ffbb85"/><path d="m81 190c0-22.091 17.909-40 40-40h40v80h-40c-22.091 0-40-17.909-40-40z" fill="#fdd1a3"/><path d="m265.186 105.559c-5.399-4.207-12.973-4.207-18.372 0-20.033 15.608-45.009 24.441-70.814 24.441h-45v93.625c0 68.977 55.294 125.977 124.27 126.373 69.259.398 125.73-55.829 125.73-124.998v-95h-45c-25.805 0-50.781-8.833-70.814-24.441z" fill="#ffe4c1"/><path d="m381 225v-95h-45c-25.805 0-50.781-8.833-70.814-24.441-2.7-2.103-5.943-3.155-9.186-3.155v247.596c68.925 0 125-56.075 125-125z" fill="#fdd1a3"/><path d="m276 205h-40c-8.284 0-15-6.716-15-15s6.716-15 15-15h40c8.284 0 15 6.716 15 15s-6.716 15-15 15z" fill="#f9f1f1"/><g><path d="m276 175h-20v30h20c8.284 0 15-6.716 15-15s-6.716-15-15-15z" fill="#e2dff4"/></g><circle cx="316" cy="190" fill="#8bb9ff" r="45"/><circle cx="196" cy="190" fill="#9ddff6" r="45"/></g></svg>