<?xml version="1.0" encoding="iso-8859-1"?>
<!-- Generator: Adobe Illustrator 19.0.0, SVG Export Plug-In . SVG Version: 6.00 Build 0)  -->
<svg version="1.1" id="Capa_1" xmlns="http://www.w3.org/2000/svg" 
fill="#adafbc"
xmlns:xlink="http://www.w3.org/1999/xlink" x="0px" y="0px"
height="21"
width="21"
	 viewBox="0 0 512.492 512.492" 
	 style="enable-background:new 0 0 512.492 512.492;" 
	 xml:space="preserve">
<g>
	<g>
		<path d="M394.832,364.989l111.403-111.424c5.099-5.056,7.253-12.352,5.824-19.392c-1.451-7.019-6.336-12.864-13.013-15.509
			c-75.584-30.144-132.821-23.616-157.077-18.389L207.376,85.757c2.667-45.312-21.696-76.181-22.827-77.589
			c-3.776-4.715-9.408-7.595-15.467-7.936c-5.995-0.213-11.968,1.963-16.235,6.229L6.246,153.064
			c-4.309,4.288-6.571,10.24-6.208,16.32c0.341,6.059,3.264,11.712,8.043,15.467c26.197,20.821,58.944,23.019,76.331,22.571
			l115.541,135.808c-4.203,24.277-9.621,83.819,18.965,155.605c2.645,6.677,8.469,11.541,15.488,13.013
			c1.451,0.277,2.88,0.427,4.309,0.427c5.611,0,11.051-2.197,15.083-6.251l110.869-110.869l110.848,110.869
			c4.16,4.16,9.621,6.251,15.083,6.251c5.461,0,10.923-2.091,15.083-6.251c8.341-8.341,8.341-21.824,0-30.165L394.832,364.989z"/>
	</g>
</g>
<g>
</g>
<g>
</g>
<g>
</g>
<g>
</g>
<g>
</g>
<g>
</g>
<g>
</g>
<g>
</g>
<g>
</g>
<g>
</g>
<g>
</g>
<g>
</g>
<g>
</g>
<g>
</g>
<g>
</g>
</svg>
